<?xml version="1.0" encoding="utf-8"?>
<!-- Generator: Adobe Illustrator 28.0.0, SVG Export Plug-In . SVG Version: 6.00 Build 0)  -->
<svg version="1.1" id="Layer_1" xmlns="http://www.w3.org/2000/svg" xmlns:xlink="http://www.w3.org/1999/xlink" x="0px" y="0px"
	 viewBox="0 0 326.1 103.3" style="enable-background:new 0 0 326.1 103.3;" xml:space="preserve">
<style type="text/css">
	.st0{display:none;fill:#F69320;}
	.st1{fill:#F69320;}
	.st2{fill:#AA2328;}
	.st3{font-family:'SourceSansPro-Bold';}
	.st4{font-size:31.0424px;}
</style>
<path class="st0" d="M149.6-51.2l12.7,15.8c0,0-3.9-4.1,0,0c7.4,7.7,16.5,9.7,26.8,7.1c3.1-0.8,6.4-1,9.6-1.5
	c9.8-1.4,19.5-2.8,29.3-4.1c3.1-0.4,6.2-1,9.4-1.1c10.1-0.3,17.6,4.4,23.1,12.5c6.6,9.6,9,20.3,9,31.8c0.1,13.8-2.7,26.9-10.1,38.7
	c-7.6,12.1-18.1,20.1-32.5,22.3c-6.8,1-13.8,1.7-20.6,2.6c-7.7,1.1-15.4,2.1-23,3.4c-13.3,2.2-24-1.6-32.2-12.8
	c-2.5-3.5-3.6-6.8-3.6-10.9l0,0l0.5-26.7h-1c1.8,2.4,3.9,5.2,5.8,7.6c5.4,6.8,12.2,11,21.1,10c7.3-0.8,14.5-2.2,21.8-3.3
	c3.6-0.5,7.3-1,10.9-1.5c7.6-0.9,15.3-1.7,22.8-2.8c5.4-0.8,9.5-4.1,11.5-9.1c3.1-7.7,3.8-15.7-0.3-23.4c-1.5-2.7-3.9-4.4-6.9-4.1
	c-6.5,0.5-12.9,1.3-19.4,2.1c-3.5,0.4-7.1,1-10.6,1.4c-9,1-18,2.1-27,2.9C165.6,6.7,158.3,0.9,153-8.1c-2.8-4.8-4.2-9.9-4.2-15.6"/>
<path class="st1" d="M8.5,47.7l5.3,6.1c0,0-1.5-1.6,0,0c2.9,3,6.4,3.8,10.4,2.8c1.2-0.3,2.5-0.4,3.7-0.6c3.8-0.5,7.6-1.1,11.4-1.6
	c1.2-0.2,2.4-0.4,3.6-0.4c3.9-0.1,6.8,1.7,9,4.9c2.6,3.7,3.5,7.9,3.5,12.4c0,5.4-1.1,10.4-3.9,15c-2.9,4.7-7,7.8-12.6,8.7
	c-2.7,0.4-5.3,0.7-8,1c-3,0.4-6,0.8-9,1.3c-5.2,0.9-9.3-0.6-12.5-5c-1-1.3-1.4-2.6-1.4-4.3l0,0L7.9,77.7l0,0c0.7,0.9,1.5,2,2.2,2.9
	c2.1,2.6,4.7,4.3,8.2,3.9c2.8-0.3,5.6-0.9,8.5-1.3c1.4-0.2,2.8-0.4,4.2-0.6c3-0.4,5.9-0.7,8.9-1.1c2.1-0.3,3.7-1.6,4.5-3.5
	c1.2-3,1.5-6.1-0.1-9.1c-0.6-1.1-1.5-1.7-2.7-1.6c-2.5,0.2-5,0.5-7.5,0.8c-1.4,0.2-2.8,0.4-4.1,0.5c-3.5,0.4-7,0.8-10.5,1.1
	c-4.3,0.4-7.1-1.8-9.2-5.3c-1.1-1.9-1.6-3.8-1.6-6.1"/>
<path class="st0" d="M254.8-44.8c-7.4-7.7-16.5-9.7-26.8-7.1c-3.1,0.8-6.4,1-9.6,1.5c-9.8,1.4-19.5,2.8-29.3,4.1
	c-3.1,0.4-6.2,1-9.4,1.1c-10.1,0.3-17.6-4.4-23.1-12.5c-6.6-9.6-9-20.3-9-31.8c-0.1-13.8,2.7-26.9,10.1-38.7
	c7.6-12.1,18.1-20.1,32.5-22.3c6.8-1,13.8-1.7,20.6-2.6c7.7-1.1,15.4-2.1,23-3.4c13.3-2.2,24,1.6,32.2,12.8
	c2.5,3.5,3.6,6.8,3.6,10.9l0,0l-0.1,26.1l0,0l-5.2-6.9c-5.6-6.2-12.2-11-21.1-10c-7.3,0.8-14.5,2.2-21.8,3.3
	c-3.6,0.5-7.3,1-10.9,1.5c-7.6,0.9-15.3,1.7-22.8,2.8c-5.4,0.8-9.5,4.1-11.5,9.1c-3.1,7.7-3.8,15.7,0.3,23.4
	c1.5,2.7,3.9,4.4,6.9,4.1c6.5-0.5,12.9-1.3,19.4-2.1c3.5-0.4,7.1-1,10.6-1.4c9-1,18-2.1,27-2.9c11.1-1.1,18.4,4.8,23.7,13.7
	c2.8,4.8,4.2,9.9,4.2,15.6c0,8.1,0,0,0,0L267.5-29"/>
<path class="st2" d="M49,50.2c-2.9-3-6.4-3.8-10.4-2.8c-1.2,0.3-2.5,0.4-3.7,0.6c-3.8,0.5-7.6,1.1-11.4,1.6
	c-1.2,0.2-2.4,0.4-3.6,0.4c-3.9,0.1-6.8-1.7-9-4.9c-2.6-3.7-3.5-7.9-3.5-12.4c0-5.4,1.1-10.4,3.9-15c2.9-4.7,7-7.8,12.6-8.7
	c2.7-0.4,5.3-0.7,8-1c3-0.4,6-0.8,9-1.3c5.2-0.9,9.3,0.6,12.5,5c1,1.3,1.4,2.6,1.4,4.3l0,0l0.3,10.1l0,0l-2.4-2.7
	c-2.2-2.4-4.7-4.3-8.2-3.9c-2.8,0.3-5.6,0.9-8.5,1.3c-1.4,0.2-2.8,0.4-4.2,0.6c-3,0.4-5.9,0.7-8.9,1.1c-2.1,0.3-3.7,1.6-4.5,3.5
	c-1.2,3-1.5,6.1,0.1,9.1c0.6,1.1,1.5,1.7,2.7,1.6c2.5-0.2,5-0.5,7.5-0.8c1.4-0.2,2.8-0.4,4.1-0.5c3.5-0.4,7-0.8,10.5-1.1
	c4.3-0.4,7.1,1.8,9.2,5.3c1.1,1.9,1.6,3.8,1.6,6.1c0,3.2,0,0,0,0l0.1,10.7"/>
<text transform="matrix(1 0 0 1 59.4943 79.2728)"><tspan x="0" y="0" class="st2 st3 st4">AXAAF </tspan><tspan x="94.1" y="0" class="st1 st3 st4">NETWORK</tspan></text>
<g>
	<g>
		<path class="st1" d="M58.4,89.3l-1.6-6h1.3l0.7,2.9c0.1,0.2,0.1,0.5,0.2,0.8c0,0.3,0.1,0.6,0.1,0.8c0,0.3,0.1,0.6,0.1,0.8H59
			c0-0.3,0.1-0.5,0.1-0.8c0-0.3,0.1-0.6,0.1-0.8c0.1-0.3,0.1-0.5,0.2-0.8l0.7-2.9h1.3l0.7,2.9c0.1,0.2,0.1,0.5,0.2,0.8
			c0.1,0.3,0.1,0.6,0.2,0.8c0,0.3,0.1,0.6,0.1,0.8h-0.2c0-0.3,0.1-0.5,0.1-0.8c0-0.3,0.1-0.6,0.1-0.8s0.1-0.5,0.2-0.8l0.7-2.9h1.3
			l-1.6,6h-1.4l-0.8-3.1c-0.1-0.3-0.2-0.7-0.2-1.1c-0.1-0.4-0.1-0.8-0.2-1.2H61c-0.1,0.4-0.2,0.8-0.2,1.2s-0.1,0.8-0.2,1.1l-0.8,3.1
			H58.4z"/>
		<path class="st1" d="M65.6,89.3v-6h1.2v2.4h2.6v-2.4h1.2v6h-1.2v-2.6h-2.6v2.6H65.6z"/>
		<path class="st1" d="M71.8,89.3v-6h4v1H73v1.4h2.6v1H73v1.5h2.8v1H71.8z"/>
		<path class="st1" d="M76.8,89.3v-6h2.3c0.5,0,0.8,0.1,1.2,0.2c0.3,0.2,0.6,0.4,0.7,0.7c0.2,0.3,0.3,0.6,0.3,1s-0.1,0.7-0.3,1
			c-0.2,0.3-0.4,0.5-0.7,0.7s-0.7,0.2-1.2,0.2h-1.6v-1h1.4c0.3,0,0.5,0,0.6-0.1c0.2-0.1,0.3-0.2,0.4-0.3c0.1-0.1,0.1-0.3,0.1-0.5
			c0-0.2,0-0.4-0.1-0.5c-0.1-0.1-0.2-0.2-0.4-0.3c-0.2-0.1-0.4-0.1-0.6-0.1H78v5H76.8z M80.1,89.3l-1.5-2.7H80l1.5,2.7H80.1z"/>
		<path class="st1" d="M82.2,89.3v-6h4v1h-2.8v1.4H86v1h-2.6v1.5h2.8v1H82.2z"/>
		<path class="st1" d="M91.8,89.4c-0.5,0-1-0.1-1.4-0.4c-0.4-0.2-0.8-0.6-1-1c-0.2-0.5-0.4-1-0.4-1.7c0-0.7,0.1-1.2,0.4-1.7
			s0.6-0.8,1-1.1c0.4-0.2,0.9-0.4,1.4-0.4c0.3,0,0.7,0,1,0.1c0.3,0.1,0.6,0.2,0.8,0.4c0.2,0.2,0.4,0.4,0.6,0.7
			c0.1,0.3,0.2,0.6,0.3,0.9h-1.2c0-0.2-0.1-0.3-0.2-0.4c-0.1-0.1-0.2-0.2-0.3-0.3c-0.1-0.1-0.2-0.2-0.4-0.2s-0.3-0.1-0.5-0.1
			c-0.3,0-0.6,0.1-0.8,0.2c-0.2,0.2-0.4,0.4-0.5,0.7c-0.1,0.3-0.2,0.7-0.2,1.1c0,0.4,0.1,0.8,0.2,1.1s0.3,0.5,0.5,0.7
			c0.2,0.2,0.5,0.2,0.8,0.2c0.2,0,0.3,0,0.5-0.1s0.3-0.1,0.4-0.2s0.2-0.2,0.3-0.3c0.1-0.1,0.1-0.3,0.2-0.4h1.2
			c0,0.3-0.1,0.5-0.2,0.8s-0.3,0.5-0.5,0.7c-0.2,0.2-0.5,0.4-0.8,0.5S92.2,89.4,91.8,89.4z"/>
		<path class="st1" d="M95.3,89.3v-6h2.3c0.5,0,0.8,0.1,1.2,0.2c0.3,0.2,0.6,0.4,0.7,0.7c0.2,0.3,0.3,0.6,0.3,1s-0.1,0.7-0.3,1
			c-0.2,0.3-0.4,0.5-0.7,0.7s-0.7,0.2-1.2,0.2H96v-1h1.4c0.3,0,0.5,0,0.6-0.1c0.2-0.1,0.3-0.2,0.4-0.3c0.1-0.1,0.1-0.3,0.1-0.5
			c0-0.2,0-0.4-0.1-0.5c-0.1-0.1-0.2-0.2-0.4-0.3c-0.2-0.1-0.4-0.1-0.6-0.1h-0.9v5H95.3z M98.6,89.3l-1.5-2.7h1.3l1.5,2.7H98.6z"/>
		<path class="st1" d="M100.7,89.3v-6h4v1h-2.8v1.4h2.6v1h-2.6v1.5h2.8v1H100.7z"/>
		<path class="st1" d="M105.3,89.3l2-6h1.6l2.1,6h-1.4l-1-2.9c-0.1-0.4-0.2-0.8-0.4-1.2c-0.1-0.4-0.2-0.9-0.4-1.5h0.3
			c-0.1,0.5-0.2,1-0.4,1.5c-0.1,0.4-0.2,0.9-0.3,1.2l-0.9,2.9H105.3z M106.6,87.9v-1h3.2v1H106.6z"/>
		<path class="st1" d="M111.6,84.3v-1h4.9v1h-1.8v5h-1.2v-5H111.6z"/>
		<path class="st1" d="M118.6,83.3v6h-1.2v-6H118.6z"/>
		<path class="st1" d="M121.4,89.3l-2.1-6h1.4l1,2.9c0.1,0.4,0.2,0.8,0.4,1.2s0.2,0.9,0.4,1.4h-0.3c0.1-0.5,0.2-1,0.4-1.4
			c0.1-0.4,0.2-0.8,0.3-1.2l0.9-2.9h1.4l-2.1,6H121.4z"/>
		<path class="st1" d="M125.8,89.3v-6h4v1H127v1.4h2.6v1H127v1.5h2.8v1H125.8z"/>
		<path class="st1" d="M134.5,89.3l-2.1-6h1.4l1,2.9c0.1,0.4,0.2,0.8,0.4,1.2s0.2,0.9,0.4,1.4h-0.3c0.1-0.5,0.2-1,0.4-1.4
			c0.1-0.4,0.2-0.8,0.3-1.2l0.9-2.9h1.4l-2.1,6H134.5z"/>
		<path class="st1" d="M140.1,83.3v6h-1.2v-6H140.1z"/>
		<path class="st1" d="M143.4,89.4c-0.5,0-0.9-0.1-1.3-0.2s-0.6-0.4-0.8-0.7c-0.2-0.3-0.3-0.6-0.3-1.1h1.2c0,0.2,0.1,0.4,0.2,0.5
			s0.2,0.2,0.4,0.3s0.4,0.1,0.6,0.1c0.2,0,0.4,0,0.6-0.1c0.2-0.1,0.3-0.2,0.4-0.3c0.1-0.1,0.1-0.2,0.1-0.4c0-0.1,0-0.3-0.1-0.3
			c-0.1-0.1-0.2-0.2-0.4-0.2s-0.3-0.1-0.6-0.2l-0.7-0.2c-0.5-0.1-0.9-0.3-1.2-0.6c-0.3-0.3-0.4-0.6-0.4-1c0-0.4,0.1-0.7,0.3-0.9
			c0.2-0.3,0.5-0.5,0.8-0.6c0.3-0.2,0.7-0.2,1.2-0.2c0.4,0,0.8,0.1,1.2,0.2c0.3,0.2,0.6,0.4,0.8,0.6s0.3,0.6,0.3,0.9h-1.2
			c0-0.2-0.1-0.4-0.3-0.6c-0.2-0.1-0.4-0.2-0.7-0.2c-0.2,0-0.4,0-0.5,0.1c-0.1,0.1-0.3,0.1-0.3,0.2c-0.1,0.1-0.1,0.2-0.1,0.4
			c0,0.1,0,0.3,0.1,0.4c0.1,0.1,0.2,0.2,0.4,0.2s0.3,0.1,0.5,0.2l0.5,0.1c0.3,0.1,0.5,0.1,0.7,0.2s0.4,0.2,0.6,0.4s0.3,0.3,0.4,0.5
			c0.1,0.2,0.1,0.4,0.1,0.7c0,0.4-0.1,0.7-0.3,0.9c-0.2,0.3-0.4,0.5-0.8,0.6C144.3,89.3,143.9,89.4,143.4,89.4z"/>
		<path class="st1" d="M147.8,83.3v6h-1.2v-6H147.8z"/>
		<path class="st1" d="M151.5,89.4c-0.5,0-1-0.1-1.4-0.4c-0.4-0.2-0.8-0.6-1-1c-0.2-0.5-0.4-1-0.4-1.7c0-0.7,0.1-1.2,0.4-1.7
			c0.2-0.5,0.6-0.8,1-1.1c0.4-0.2,0.9-0.4,1.4-0.4c0.5,0,1,0.1,1.4,0.4c0.4,0.2,0.8,0.6,1,1.1c0.2,0.5,0.4,1,0.4,1.7
			c0,0.6-0.1,1.2-0.4,1.7c-0.2,0.5-0.6,0.8-1,1C152.6,89.2,152.1,89.4,151.5,89.4z M151.5,88.3c0.3,0,0.6-0.1,0.8-0.2
			c0.2-0.2,0.4-0.4,0.5-0.7c0.1-0.3,0.2-0.7,0.2-1.1c0-0.4-0.1-0.8-0.2-1.1c-0.1-0.3-0.3-0.5-0.5-0.7c-0.2-0.2-0.5-0.2-0.8-0.2
			c-0.3,0-0.6,0.1-0.8,0.2s-0.4,0.4-0.5,0.7c-0.1,0.3-0.2,0.7-0.2,1.1c0,0.4,0.1,0.8,0.2,1.1c0.1,0.3,0.3,0.5,0.5,0.7
			C151,88.2,151.2,88.3,151.5,88.3z"/>
		<path class="st1" d="M155.3,89.3v-6h1.4l1.9,3c0.1,0.2,0.2,0.3,0.3,0.5c0.1,0.2,0.2,0.4,0.3,0.6s0.2,0.5,0.3,0.8h-0.1
			c0-0.2,0-0.5-0.1-0.7c0-0.3,0-0.5,0-0.7s0-0.4,0-0.6v-2.9h1.3v6h-1.4l-1.7-2.8c-0.1-0.2-0.2-0.4-0.4-0.6c-0.1-0.2-0.2-0.4-0.3-0.6
			c-0.1-0.2-0.3-0.5-0.4-0.8h0.2c0,0.3,0,0.6,0,0.8c0,0.3,0,0.5,0,0.7s0,0.4,0,0.5v2.8H155.3z"/>
		<path class="st1" d="M163.5,89.3v-6h1.9l1,2.8c0,0.1,0.1,0.3,0.1,0.5c0.1,0.2,0.1,0.4,0.2,0.7c0.1,0.2,0.1,0.5,0.2,0.7
			s0.1,0.4,0.1,0.6h-0.2c0-0.2,0.1-0.4,0.1-0.6c0-0.2,0.1-0.5,0.2-0.7c0.1-0.2,0.1-0.5,0.2-0.7c0.1-0.2,0.1-0.4,0.1-0.5l1-2.8h1.9v6
			h-1.2v-2.8c0-0.1,0-0.3,0-0.5c0-0.2,0-0.4,0-0.6c0-0.2,0-0.5,0-0.7c0-0.2,0-0.4,0-0.7h0.1c-0.1,0.2-0.1,0.5-0.2,0.7
			c-0.1,0.2-0.1,0.5-0.2,0.7c-0.1,0.2-0.1,0.4-0.2,0.6c-0.1,0.2-0.1,0.3-0.1,0.5l-1,2.8h-1l-1-2.8c0-0.1-0.1-0.3-0.1-0.5
			c-0.1-0.2-0.1-0.4-0.2-0.6s-0.1-0.5-0.2-0.7c-0.1-0.2-0.1-0.5-0.2-0.7h0.1c0,0.2,0,0.4,0,0.6c0,0.2,0,0.5,0,0.7c0,0.2,0,0.4,0,0.6
			c0,0.2,0,0.4,0,0.5v2.8H163.5z"/>
		<path class="st1" d="M171.2,89.3v-6h4v1h-2.8v1.4h2.6v1h-2.6v1.5h2.8v1H171.2z"/>
		<path class="st1" d="M176.2,89.3v-6h4v1h-2.8v1.4h2.6v1h-2.6v1.5h2.8v1H176.2z"/>
		<path class="st1" d="M180.9,84.3v-1h4.9v1H184v5h-1.2v-5H180.9z"/>
		<path class="st1" d="M188.9,89.4c-0.5,0-0.9-0.1-1.3-0.2s-0.6-0.4-0.8-0.7c-0.2-0.3-0.3-0.6-0.3-1.1h1.2c0,0.2,0.1,0.4,0.2,0.5
			s0.2,0.2,0.4,0.3s0.4,0.1,0.6,0.1c0.2,0,0.4,0,0.6-0.1c0.2-0.1,0.3-0.2,0.4-0.3c0.1-0.1,0.1-0.2,0.1-0.4c0-0.1,0-0.3-0.1-0.3
			c-0.1-0.1-0.2-0.2-0.4-0.2s-0.3-0.1-0.6-0.2l-0.7-0.2c-0.5-0.1-0.9-0.3-1.2-0.6c-0.3-0.3-0.4-0.6-0.4-1c0-0.4,0.1-0.7,0.3-0.9
			c0.2-0.3,0.5-0.5,0.8-0.6c0.3-0.2,0.7-0.2,1.2-0.2c0.4,0,0.8,0.1,1.2,0.2c0.3,0.2,0.6,0.4,0.8,0.6s0.3,0.6,0.3,0.9h-1.2
			c0-0.2-0.1-0.4-0.3-0.6c-0.2-0.1-0.4-0.2-0.7-0.2c-0.2,0-0.4,0-0.5,0.1c-0.1,0.1-0.3,0.1-0.3,0.2c-0.1,0.1-0.1,0.2-0.1,0.4
			c0,0.1,0,0.3,0.1,0.4c0.1,0.1,0.2,0.2,0.4,0.2s0.3,0.1,0.5,0.2l0.5,0.1c0.3,0.1,0.5,0.1,0.7,0.2s0.4,0.2,0.6,0.4s0.3,0.3,0.4,0.5
			c0.1,0.2,0.1,0.4,0.1,0.7c0,0.4-0.1,0.7-0.3,0.9c-0.2,0.3-0.4,0.5-0.8,0.6C189.8,89.3,189.4,89.4,188.9,89.4z"/>
		<path class="st1" d="M195.2,83.3v6H194v-6H195.2z"/>
		<path class="st1" d="M196.3,89.3v-6h1.4l1.9,3c0.1,0.2,0.2,0.3,0.3,0.5c0.1,0.2,0.2,0.4,0.3,0.6s0.2,0.5,0.3,0.8h-0.1
			c0-0.2,0-0.5-0.1-0.7c0-0.3,0-0.5,0-0.7s0-0.4,0-0.6v-2.9h1.3v6h-1.4l-1.7-2.8c-0.1-0.2-0.2-0.4-0.4-0.6c-0.1-0.2-0.2-0.4-0.3-0.6
			c-0.1-0.2-0.3-0.5-0.4-0.8h0.2c0,0.3,0,0.6,0,0.8c0,0.3,0,0.5,0,0.7s0,0.4,0,0.5v2.8H196.3z"/>
		<path class="st1" d="M202.4,84.3v-1h4.9v1h-1.8v5h-1.2v-5H202.4z"/>
		<path class="st1" d="M208.1,89.3v-6h4v1h-2.8v1.4h2.6v1h-2.6v1.5h2.8v1H208.1z"/>
		<path class="st1" d="M213.1,89.3v-6h1.2v5h2.6v1H213.1z"/>
		<path class="st1" d="M217.8,89.3v-6h1.2v5h2.6v1H217.8z"/>
		<path class="st1" d="M223.7,83.3v6h-1.2v-6H223.7z"/>
		<path class="st1" d="M227.4,89.4c-0.6,0-1.1-0.1-1.5-0.4s-0.8-0.6-1-1.1c-0.2-0.5-0.4-1-0.4-1.6c0-0.6,0.1-1.2,0.4-1.7
			c0.2-0.5,0.6-0.8,1-1.1c0.4-0.2,0.9-0.4,1.4-0.4c0.3,0,0.7,0,0.9,0.1c0.3,0.1,0.5,0.2,0.8,0.4s0.4,0.4,0.6,0.6
			c0.1,0.2,0.2,0.5,0.3,0.8h-1.2c0-0.1-0.1-0.3-0.2-0.4c-0.1-0.1-0.2-0.2-0.3-0.3c-0.1-0.1-0.2-0.1-0.4-0.2c-0.1,0-0.3-0.1-0.5-0.1
			c-0.3,0-0.6,0.1-0.8,0.2c-0.2,0.2-0.4,0.4-0.6,0.7s-0.2,0.7-0.2,1.1s0.1,0.8,0.2,1.1c0.1,0.3,0.3,0.5,0.5,0.7
			c0.2,0.2,0.5,0.2,0.8,0.2c0.3,0,0.5-0.1,0.7-0.2c0.2-0.1,0.4-0.3,0.5-0.4c0.1-0.2,0.2-0.4,0.2-0.7l0.3,0h-1.6v-0.9h2.5v0.7
			c0,0.5-0.1,1-0.3,1.4c-0.2,0.4-0.5,0.7-0.9,0.9C228.3,89.3,227.9,89.4,227.4,89.4z"/>
		<path class="st1" d="M230.9,89.3v-6h4v1h-2.8v1.4h2.6v1h-2.6v1.5h2.8v1H230.9z"/>
		<path class="st1" d="M235.9,89.3v-6h1.4l1.9,3c0.1,0.2,0.2,0.3,0.3,0.5c0.1,0.2,0.2,0.4,0.3,0.6s0.2,0.5,0.3,0.8H240
			c0-0.2,0-0.5-0.1-0.7c0-0.3,0-0.5,0-0.7s0-0.4,0-0.6v-2.9h1.3v6h-1.4l-1.7-2.8c-0.1-0.2-0.2-0.4-0.4-0.6c-0.1-0.2-0.2-0.4-0.3-0.6
			c-0.1-0.2-0.3-0.5-0.4-0.8h0.2c0,0.3,0,0.6,0,0.8c0,0.3,0,0.5,0,0.7s0,0.4,0,0.5v2.8H235.9z"/>
		<path class="st1" d="M242,84.3v-1h4.9v1H245v5h-1.2v-5H242z"/>
		<path class="st1" d="M249.4,84.3v-1h4.9v1h-1.8v5h-1.2v-5H249.4z"/>
		<path class="st1" d="M255.2,89.3v-6h4v1h-2.8v1.4h2.6v1h-2.6v1.5h2.8v1H255.2z"/>
		<path class="st1" d="M262.8,89.4c-0.5,0-1-0.1-1.4-0.4c-0.4-0.2-0.8-0.6-1-1c-0.2-0.5-0.4-1-0.4-1.7c0-0.7,0.1-1.2,0.4-1.7
			s0.6-0.8,1-1.1c0.4-0.2,0.9-0.4,1.4-0.4c0.3,0,0.7,0,1,0.1c0.3,0.1,0.6,0.2,0.8,0.4c0.2,0.2,0.4,0.4,0.6,0.7
			c0.1,0.3,0.2,0.6,0.3,0.9h-1.2c0-0.2-0.1-0.3-0.2-0.4s-0.2-0.2-0.3-0.3c-0.1-0.1-0.2-0.2-0.4-0.2s-0.3-0.1-0.5-0.1
			c-0.3,0-0.6,0.1-0.8,0.2c-0.2,0.2-0.4,0.4-0.5,0.7c-0.1,0.3-0.2,0.7-0.2,1.1c0,0.4,0.1,0.8,0.2,1.1s0.3,0.5,0.5,0.7
			c0.2,0.2,0.5,0.2,0.8,0.2c0.2,0,0.3,0,0.5-0.1c0.1,0,0.3-0.1,0.4-0.2c0.1-0.1,0.2-0.2,0.3-0.3s0.1-0.3,0.2-0.4h1.2
			c0,0.3-0.1,0.5-0.2,0.8s-0.3,0.5-0.5,0.7s-0.5,0.4-0.8,0.5S263.2,89.4,262.8,89.4z"/>
		<path class="st1" d="M266.3,89.3v-6h1.2v2.4h2.6v-2.4h1.2v6h-1.2v-2.6h-2.6v2.6H266.3z"/>
		<path class="st1" d="M272.4,89.3v-6h1.4l1.9,3c0.1,0.2,0.2,0.3,0.3,0.5c0.1,0.2,0.2,0.4,0.3,0.6c0.1,0.2,0.2,0.5,0.3,0.8h-0.1
			c0-0.2,0-0.5,0-0.7c0-0.3,0-0.5,0-0.7s0-0.4,0-0.6v-2.9h1.3v6h-1.4l-1.7-2.8c-0.1-0.2-0.2-0.4-0.3-0.6c-0.1-0.2-0.2-0.4-0.3-0.6
			c-0.1-0.2-0.3-0.5-0.4-0.8h0.2c0,0.3,0,0.6,0,0.8c0,0.3,0,0.5,0,0.7c0,0.2,0,0.4,0,0.5v2.8H272.4z"/>
		<path class="st1" d="M281.3,89.4c-0.5,0-1-0.1-1.4-0.4c-0.4-0.2-0.8-0.6-1-1c-0.2-0.5-0.4-1-0.4-1.7c0-0.7,0.1-1.2,0.4-1.7
			s0.6-0.8,1-1.1c0.4-0.2,0.9-0.4,1.4-0.4c0.5,0,1,0.1,1.4,0.4c0.4,0.2,0.8,0.6,1,1.1s0.4,1,0.4,1.7c0,0.6-0.1,1.2-0.4,1.7
			c-0.2,0.5-0.6,0.8-1,1C282.3,89.2,281.9,89.4,281.3,89.4z M281.3,88.3c0.3,0,0.6-0.1,0.8-0.2c0.2-0.2,0.4-0.4,0.5-0.7
			c0.1-0.3,0.2-0.7,0.2-1.1c0-0.4-0.1-0.8-0.2-1.1c-0.1-0.3-0.3-0.5-0.5-0.7c-0.2-0.2-0.5-0.2-0.8-0.2c-0.3,0-0.6,0.1-0.8,0.2
			s-0.4,0.4-0.5,0.7s-0.2,0.7-0.2,1.1c0,0.4,0.1,0.8,0.2,1.1s0.3,0.5,0.5,0.7C280.7,88.2,281,88.3,281.3,88.3z"/>
		<path class="st1" d="M285,89.3v-6h1.2v5h2.6v1H285z"/>
		<path class="st1" d="M292.3,89.4c-0.5,0-1-0.1-1.4-0.4c-0.4-0.2-0.8-0.6-1-1c-0.2-0.5-0.4-1-0.4-1.7c0-0.7,0.1-1.2,0.4-1.7
			s0.6-0.8,1-1.1c0.4-0.2,0.9-0.4,1.4-0.4c0.5,0,1,0.1,1.4,0.4c0.4,0.2,0.8,0.6,1,1.1s0.4,1,0.4,1.7c0,0.6-0.1,1.2-0.4,1.7
			c-0.2,0.5-0.6,0.8-1,1C293.3,89.2,292.9,89.4,292.3,89.4z M292.3,88.3c0.3,0,0.6-0.1,0.8-0.2c0.2-0.2,0.4-0.4,0.5-0.7
			c0.1-0.3,0.2-0.7,0.2-1.1c0-0.4-0.1-0.8-0.2-1.1c-0.1-0.3-0.3-0.5-0.5-0.7c-0.2-0.2-0.5-0.2-0.8-0.2c-0.3,0-0.6,0.1-0.8,0.2
			s-0.4,0.4-0.5,0.7s-0.2,0.7-0.2,1.1c0,0.4,0.1,0.8,0.2,1.1s0.3,0.5,0.5,0.7C291.8,88.2,292,88.3,292.3,88.3z"/>
		<path class="st1" d="M298.7,89.4c-0.6,0-1.1-0.1-1.5-0.4c-0.4-0.2-0.8-0.6-1-1.1s-0.4-1-0.4-1.6c0-0.6,0.1-1.2,0.4-1.7
			s0.6-0.8,1-1.1s0.9-0.4,1.4-0.4c0.3,0,0.7,0,0.9,0.1c0.3,0.1,0.5,0.2,0.8,0.4s0.4,0.4,0.6,0.6c0.1,0.2,0.2,0.5,0.3,0.8H300
			c0-0.1-0.1-0.3-0.2-0.4c-0.1-0.1-0.2-0.2-0.3-0.3c-0.1-0.1-0.2-0.1-0.4-0.2c-0.1,0-0.3-0.1-0.5-0.1c-0.3,0-0.6,0.1-0.8,0.2
			c-0.2,0.2-0.4,0.4-0.6,0.7s-0.2,0.7-0.2,1.1s0.1,0.8,0.2,1.1c0.1,0.3,0.3,0.5,0.5,0.7c0.2,0.2,0.5,0.2,0.8,0.2
			c0.3,0,0.5-0.1,0.7-0.2c0.2-0.1,0.4-0.3,0.5-0.4s0.2-0.4,0.2-0.7l0.3,0h-1.6v-0.9h2.5v0.7c0,0.5-0.1,1-0.3,1.4
			c-0.2,0.4-0.5,0.7-0.9,0.9C299.7,89.3,299.2,89.4,298.7,89.4z"/>
		<path class="st1" d="M304.1,89.3V87l-2.2-3.7h1.4l1,1.9c0.1,0.2,0.2,0.4,0.3,0.6c0.1,0.2,0.2,0.4,0.2,0.7h-0.3
			c0.1-0.3,0.2-0.5,0.2-0.7c0.1-0.2,0.2-0.4,0.3-0.6l1-1.9h1.4l-2.2,3.7v2.3H304.1z"/>
	</g>
</g>
</svg>
